<svg id="Слой_1" data-name="Слой 1" xmlns="http://www.w3.org/2000/svg" viewBox="0 0 202.12 79.13"><defs><style>.cls-1,.cls-2,.cls-5,.cls-7{fill:none;stroke:#fff;stroke-miterlimit:10;}.cls-1,.cls-2{stroke-width:4px;}.cls-2{stroke-linecap:round;}.cls-3,.cls-4,.cls-5,.cls-6,.cls-7{isolation:isolate;}.cls-4,.cls-5,.cls-6,.cls-7{font-size:54.33px;font-family:TrebuchetMS, Trebuchet MS;}.cls-4,.cls-6{fill:#fff;}.cls-5,.cls-7{stroke-width:0.25px;}.cls-6,.cls-7{letter-spacing:-0.11em;}</style></defs><path class="cls-1" d="M40,387.63h66.83a2.11,2.11,0,0,1,2.17,2.05h0c0,16.36-14,29.63-31.3,29.63H68.19c-16.75,0-30.32-12.85-30.32-28.71v-.92A2.11,2.11,0,0,1,40,387.63Z" transform="translate(-35.87 -355.9)"/><line class="cls-2" x1="48.99" y1="30.74" x2="52.54" y2="2"/><line class="cls-2" x1="56.04" y1="30.47" x2="65.47" y2="6.96"/><line class="cls-2" x1="15.8" y1="69.86" x2="59.42" y2="69.87"/><g class="cls-3"><text class="cls-4" transform="translate(94.43 64.76) scale(1.06 1)">UN</text><text class="cls-5" transform="translate(94.43 64.76) scale(1.06 1)">UN</text><text class="cls-6" transform="translate(168.26 64.76) scale(1.06 1)">A</text><text class="cls-7" transform="translate(168.26 64.76) scale(1.06 1)">A</text></g><line class="cls-2" x1="10.8" y1="24.25" x2="10.8" y2="16.18"/><line class="cls-2" x1="20.8" y1="23.46" x2="20.8" y2="9.28"/><line class="cls-2" x1="29.9" y1="24.25" x2="29.9" y2="16.18"/></svg>