<svg xmlns="http://www.w3.org/2000/svg" width="210" height="80"><style>.st0{fill:#0000b4}</style><g id="Layer_1"><path class="st0" d="M40.2 34.1v-2.2-9c0-1.9 1.5-3 3-3 .8 0 1.7-.1 2.5.2 1 .3 1.9 1.4 1.9 2.5v32c0 1.5-1.3 2.9-2.9 2.8-.8 0-1.6.1-2.4-.1-1.3-.4-2-1.2-2-2.5v-.3c-.8.7-1.4 1.4-2.3 1.9-1.3.9-2.8 1.4-4.4 1.5-2 .2-3.9-.1-5.7-.9-2.6-1.2-4.5-3.1-6-5.5-.9-1.5-1.5-3.1-1.7-4.8-.2-1.7-.2-3.4.1-5.1.3-2 1.1-3.7 2.2-5.3 1.4-2 3.2-3.6 5.5-4.6 1.7-.8 3.6-1.2 5.5-.9 2.5.3 4.8 1.3 6.5 3.3 0-.2.1-.1.2 0zM27.6 44.2c-.1 1 .1 1.9.5 2.8.8 2.2 2.3 3.7 4.7 4.2 1.7.3 3.3 0 4.7-1 1.9-1.4 2.7-3.4 2.7-5.6.1-1.9-.4-3.7-1.7-5.2-2.1-2.6-6-2.9-8.6-.7-1.6 1.4-2.2 3.3-2.3 5.5z"/><path d="M128.5 60.9c-1.6 0-2.6-.8-3.4-1.9-3.1-4-5.7-8.4-7.8-13-1.2-2.6-2.2-5.4-3.2-8.1-1-2.9.8-4.5 2.9-5.5.9-.4 1.9-.6 2.9-.4 1.2.3 1.9 1.1 2.4 2.2.7 1.7 1.2 3.5 1.9 5.2.7 1.7 1.4 3.3 2.2 4.9 0 .1.1.2.2.1.2 0 .2-.2.2-.3.3-.9.5-1.9.8-2.8.8-2.9 1.8-5.8 2.9-8.7 1.5-3.9 3.3-7.6 5.5-11.1.6-1 1.3-1.9 1.9-2.9 1.3-1.8 3.1-2.1 5-.8 1 .7 1.8 1.6 2.3 2.7.5 1.1.5 2.3-.2 3.3-2.3 3.4-4.2 7-5.7 10.7-1.1 2.8-2.1 5.6-3 8.5-.9 2.9-1.6 5.8-2.3 8.7-.4 1.8-.7 3.7-1.1 5.5-.3 1.7-1.4 2.7-3 3.2-.5.3-1 .6-1.4.5z" fill="#96d300"/><path class="st0" d="M69.7 46.8h-7.9c-.5 0-.4.3-.3.6.6 1.5 1.5 2.7 3 3.5 2.5 1.2 5 1 7.5 0 .6-.3 1.1-.8 1.8-.9 1-.3 1.8 0 2.5.8.3.4.7.8 1 1.3.9 1.4.4 2.5-.7 3.3-1.6 1.2-3.5 1.9-5.5 2.3-1.2.2-2.5.4-3.7.3-3.8-.1-7-1.5-9.7-4.2-1.3-1.3-2.3-2.7-2.9-4.4-.5-1.1-.7-2.3-.9-3.5-.2-1.4-.1-2.9.2-4.3.4-2 1.3-3.9 2.6-5.5 1.6-2 3.4-3.6 5.8-4.5 2.1-.8 4.3-1.1 6.6-.9 2.1.2 4 .8 5.7 2 2.1 1.4 3.7 3.2 4.7 5.5.8 1.7 1.2 3.5 1.2 5.3 0 2-1 3.2-3.1 3.3h-7.9zm-2.6-5.3h5.2c.5 0 .6-.1.4-.6-.1-.4-.3-.8-.5-1.2-1.7-2.7-4.4-3.3-7.2-2.4-1.8.6-3 1.9-3.7 3.7-.1.4-.1.5.3.5h5.5zM162.1 44.8c0-4.1 1.3-7.1 3.7-9.7 1.3-1.3 2.7-2.5 4.3-3.3 1.1-.5 2.2-.9 3.4-1.1 1.8-.3 3.5-.3 5.2.1 2.2.4 4.1 1.4 5.8 2.8 1.9 1.6 3.4 3.4 4.4 5.7.4 1.1.7 2.3.9 3.4.2 1.3 0 2.5-.1 3.8-.2 1.1-.6 2.2-1.1 3.2-1 1.9-2.3 3.6-4 4.9-1.6 1.4-3.5 2.3-5.6 2.8-1.7.4-3.4.4-5.1.2-1.3-.1-2.5-.5-3.7-1.1-1.8-.8-3.3-2-4.7-3.5-1.4-1.5-2.4-3.1-3.1-5.1-.1-1-.3-2.4-.3-3.1zm7.7-.4c-.1.8.1 1.7.4 2.5.7 1.7 1.9 3.1 3.7 3.8 2.1.8 4 .5 5.8-.8 2-1.6 2.7-3.7 2.6-6.2-.1-2.6-2-5.2-4.4-5.9-2.3-.7-4.6 0-6.2 1.6-1.4 1.4-1.9 3-1.9 5zM93.8 38.7v16c0 1.4-1.2 2.6-2.6 2.6h-1.7c-2 .1-3.1-1.3-3.1-3V23.1c0-1.2.3-2.1 1.4-2.8.3-.2.6-.3.9-.3 1.4-.2 2.8-.4 4.1.5.8.5 1.1 1.3 1.1 2.3-.1 5.3-.1 10.6-.1 15.9zM109 44.3v10.5c0 1.5-1.1 2.6-2.6 2.5h-1.9c-1.7.1-2.9-1.2-2.9-2.8V33.9c0-1.4 1.1-2.9 2.8-2.8h2.2c1.3 0 2.4 1.2 2.4 2.4v10.8zM149.4 44.3V33.8c0-1.4 1.2-2.6 2.6-2.7h2.2c1.3 0 2.6 1.6 2.6 2.7 0 6.9-.1 13.8 0 20.7 0 1.2-.9 2.6-2.1 2.8-1.1.2-2.2.2-3.3-.1-.9-.2-1.9-1.4-1.9-2.6-.1-3.4-.1-6.9-.1-10.3zM109.5 23.8c.2 2.3-1.8 4.1-4.2 4.1-2.3 0-4.1-1.8-4.1-3.9-.1-2.7 1.8-4.3 4.1-4.3 2.5 0 4.3 1.6 4.2 4.1zM153 27.8c-2.6.1-4.2-1.8-4.2-4 0-2.4 1.5-4.2 4.3-4.1 2.7.1 4.1 1.6 4.2 4.1 0 2.3-1.6 4-4.3 4z"/></g></svg>