<svg width="200" height="78" viewBox="0 0 200 78" fill="none" xmlns="http://www.w3.org/2000/svg">
<path d="M4 31H65.71C66.2404 31 66.7491 31.2107 67.1242 31.5858C67.4993 31.9609 67.71 32.4696 67.71 33C67.71 40.6648 64.6652 48.0156 59.2454 53.4354C53.8256 58.8552 46.4748 61.9 38.81 61.9H30C22.5739 61.9 15.452 58.95 10.201 53.699C4.94999 48.448 2 41.3261 2 33.9V33C2 32.4696 2.21071 31.9609 2.58579 31.5858C2.96086 31.2107 3.46957 31 4 31Z" stroke="white" stroke-width="4" stroke-miterlimit="10"/>
<path d="M45.39 30.03L48.67 2" stroke="white" stroke-width="4" stroke-miterlimit="10" stroke-linecap="round"/>
<path d="M51.9 29.77L60.61 6.84003" stroke="white" stroke-width="4" stroke-miterlimit="10" stroke-linecap="round"/>
<path d="M14.74 68.19L55.02 68.2" stroke="white" stroke-width="4" stroke-miterlimit="10" stroke-linecap="round"/>
<path d="M91.2311 22.3146H96.4059V48.2662C96.4059 50.5776 97.139 52.4837 98.6052 53.9844C100.071 55.4678 102.012 56.2095 104.427 56.2095C106.98 56.2095 108.989 55.4851 110.456 54.0361C111.922 52.5872 112.655 50.6207 112.655 48.1368V22.3146H117.83V48.6802C117.83 52.5095 116.631 55.5023 114.233 57.6585C111.853 59.7974 108.601 60.8669 104.479 60.8669C100.235 60.8669 96.9665 59.8146 94.6724 57.7102C92.3782 55.6058 91.2311 52.5872 91.2311 48.6543V22.3146ZM150.095 60.7375L130.508 33.0264V60.22H125.592V22.3146H127.662L146.731 48.5249V22.3146H151.647V60.7375H150.095ZM180.962 60.22L178.349 52.2249H164.248L161.453 60.22H155.657L171.052 21.7971H172.424L186.706 60.22H180.962ZM171.492 31.7327L165.619 48.4214H176.874L171.492 31.7327Z" fill="white"/>
<path d="M91.2311 22.3146V22.1896H91.1061V22.3146H91.2311ZM96.4059 22.3146H96.5309V22.1896H96.4059V22.3146ZM98.6052 53.9844L98.5158 54.0717L98.5163 54.0722L98.6052 53.9844ZM112.655 22.3146V22.1896H112.53V22.3146H112.655ZM117.83 22.3146H117.955V22.1896H117.83V22.3146ZM114.233 57.6585L114.317 57.7515L114.317 57.7514L114.233 57.6585ZM91.2311 22.4396H96.4059V22.1896H91.2311V22.4396ZM96.2809 22.3146V48.2662H96.5309V22.3146H96.2809ZM96.2809 48.2662C96.2809 50.6066 97.0244 52.5452 98.5158 54.0717L98.6946 53.897C97.2537 52.4221 96.5309 50.5486 96.5309 48.2662H96.2809ZM98.5163 54.0722C100.01 55.5832 101.984 56.3345 104.427 56.3345V56.0845C102.04 56.0845 100.133 55.3524 98.6941 53.8965L98.5163 54.0722ZM104.427 56.3345C107.004 56.3345 109.048 55.6023 110.543 54.125L110.368 53.9472C108.93 55.3678 106.955 56.0845 104.427 56.0845V56.3345ZM110.543 54.125C112.038 52.6479 112.78 50.6468 112.78 48.1368H112.53C112.53 50.5947 111.805 52.5264 110.368 53.9472L110.543 54.125ZM112.78 48.1368V22.3146H112.53V48.1368H112.78ZM112.655 22.4396H117.83V22.1896H112.655V22.4396ZM117.705 22.3146V48.6802H117.955V22.3146H117.705ZM117.705 48.6802C117.705 52.4814 116.516 55.4375 114.15 57.5655L114.317 57.7514C116.746 55.5671 117.955 52.5377 117.955 48.6802H117.705ZM114.15 57.5655C111.798 59.6784 108.58 60.7419 104.479 60.7419V60.9919C108.623 60.9919 111.907 59.9164 114.317 57.7515L114.15 57.5655ZM104.479 60.7419C100.255 60.7419 97.0207 59.6947 94.7569 57.6181L94.5879 57.8023C96.9123 59.9346 100.215 60.9919 104.479 60.9919V60.7419ZM94.7569 57.6181C92.495 55.5433 91.3561 52.562 91.3561 48.6543H91.1061C91.1061 52.6123 92.2614 55.6683 94.5879 57.8023L94.7569 57.6181ZM91.3561 48.6543V22.3146H91.1061V48.6543H91.3561ZM150.095 60.7375L149.992 60.8096L150.03 60.8625H150.095V60.7375ZM130.508 33.0264L130.61 32.9543L130.383 32.633V33.0264H130.508ZM130.508 60.22V60.345H130.633V60.22H130.508ZM125.592 60.22H125.467V60.345H125.592V60.22ZM125.592 22.3146V22.1896H125.467V22.3146H125.592ZM127.662 22.3146L127.763 22.241L127.725 22.1896H127.662V22.3146ZM146.731 48.5249L146.63 48.5985L146.856 48.9092V48.5249H146.731ZM146.731 22.3146V22.1896H146.606V22.3146H146.731ZM151.647 22.3146H151.772V22.1896H151.647V22.3146ZM151.647 60.7375V60.8625H151.772V60.7375H151.647ZM150.197 60.6653L130.61 32.9543L130.406 33.0986L149.992 60.8096L150.197 60.6653ZM130.383 33.0264V60.22H130.633V33.0264H130.383ZM130.508 60.095H125.592V60.345H130.508V60.095ZM125.717 60.22V22.3146H125.467V60.22H125.717ZM125.592 22.4396H127.662V22.1896H125.592V22.4396ZM127.561 22.3881L146.63 48.5985L146.832 48.4514L127.763 22.241L127.561 22.3881ZM146.856 48.5249V22.3146H146.606V48.5249H146.856ZM146.731 22.4396H151.647V22.1896H146.731V22.4396ZM151.522 22.3146V60.7375H151.772V22.3146H151.522ZM151.647 60.6125H150.095V60.8625H151.647V60.6125ZM180.962 60.22L180.843 60.2588L180.872 60.345H180.962V60.22ZM178.349 52.2249L178.468 52.1861L178.44 52.0999H178.349V52.2249ZM164.248 52.2249V52.0999H164.159L164.13 52.1837L164.248 52.2249ZM161.453 60.22V60.345H161.542L161.571 60.2612L161.453 60.22ZM155.657 60.22L155.541 60.1735L155.473 60.345H155.657V60.22ZM171.052 21.7971V21.6721H170.968L170.936 21.7506L171.052 21.7971ZM172.424 21.7971L172.541 21.7535L172.511 21.6721H172.424V21.7971ZM186.706 60.22V60.345H186.886L186.823 60.1764L186.706 60.22ZM171.492 31.7327L171.611 31.6943L171.498 31.3415L171.374 31.6912L171.492 31.7327ZM165.619 48.4214L165.501 48.3799L165.442 48.5464H165.619V48.4214ZM176.874 48.4214V48.5464H177.046L176.993 48.3831L176.874 48.4214ZM181.081 60.1812L178.468 52.1861L178.23 52.2638L180.843 60.2588L181.081 60.1812ZM178.349 52.0999H164.248V52.3499H178.349V52.0999ZM164.13 52.1837L161.335 60.1788L161.571 60.2612L164.366 52.2662L164.13 52.1837ZM161.453 60.095H155.657V60.345H161.453V60.095ZM155.773 60.2665L171.169 21.8436L170.936 21.7506L155.541 60.1735L155.773 60.2665ZM171.052 21.9221H172.424V21.6721H171.052V21.9221ZM172.307 21.8406L186.589 60.2636L186.823 60.1764L172.541 21.7535L172.307 21.8406ZM186.706 60.095H180.962V60.345H186.706V60.095ZM171.374 31.6912L165.501 48.3799L165.737 48.4629L171.61 31.7742L171.374 31.6912ZM165.619 48.5464H176.874V48.2964H165.619V48.5464ZM176.993 48.3831L171.611 31.6943L171.373 31.7711L176.755 48.4598L176.993 48.3831Z" fill="white"/>
<path d="M10.13 23.7V15.83" stroke="white" stroke-width="4" stroke-miterlimit="10" stroke-linecap="round"/>
<path d="M19.36 22.93V9.10001" stroke="white" stroke-width="4" stroke-miterlimit="10" stroke-linecap="round"/>
<path d="M27.76 23.7V15.83" stroke="white" stroke-width="4" stroke-miterlimit="10" stroke-linecap="round"/>
</svg>
