<svg id="Слой_1" data-name="Слой 1" xmlns="http://www.w3.org/2000/svg" viewBox="0 0 187.19 77.6"><defs><style>.cls-1,.cls-2{fill:none;stroke-width:4px;}.cls-1,.cls-2,.cls-4,.cls-5,.cls-6,.cls-7{stroke:#262d4f;stroke-miterlimit:10;}.cls-2{stroke-linecap:round;}.cls-3,.cls-4,.cls-5,.cls-6,.cls-7{isolation:isolate;}.cls-4,.cls-5,.cls-6,.cls-7{font-size:52.99px;fill:#272d4f;font-family:TrebuchetMS, Trebuchet MS;}.cls-5,.cls-7{stroke-width:0.25px;}.cls-6,.cls-7{letter-spacing:-0.11em;}</style></defs><path class="cls-1" d="M4,31H65.71a2,2,0,0,1,2,2h0a28.9,28.9,0,0,1-28.9,28.9H30a28,28,0,0,1-28-28V33A2,2,0,0,1,4,31Z" transform="translate(0 0)"/><line class="cls-2" x1="45.39" y1="30.03" x2="48.67" y2="2"/><line class="cls-2" x1="51.9" y1="29.77" x2="60.61" y2="6.84"/><line class="cls-2" x1="14.74" y1="68.19" x2="55.02" y2="68.2"/><g class="cls-3"><text class="cls-4" transform="translate(87.35 63.21)">UN</text><text class="cls-5" transform="translate(87.35 63.21)">UN</text><text class="cls-6" transform="translate(155.53 63.21)">A</text><text class="cls-7" transform="translate(155.53 63.21)">A</text></g><line class="cls-2" x1="10.13" y1="23.7" x2="10.13" y2="15.83"/><line class="cls-2" x1="19.36" y1="22.93" x2="19.36" y2="9.1"/><line class="cls-2" x1="27.76" y1="23.7" x2="27.76" y2="15.83"/></svg>